<svg width="200" height="200" viewBox="0 0 200 200" xmlns="http://www.w3.org/2000/svg">
  <!-- 彩色渐变背景 -->
  <defs>
    <linearGradient id="gradient1" x1="0%" y1="0%" x2="100%" y2="100%">
      <stop offset="0%" style="stop-color:#ff6b6b;stop-opacity:1" />
      <stop offset="50%" style="stop-color:#4ecdc4;stop-opacity:1" />
      <stop offset="100%" style="stop-color:#45b7d1;stop-opacity:1" />
    </linearGradient>
    <radialGradient id="gradient2" cx="50%" cy="50%" r="50%">
      <stop offset="0%" style="stop-color:#fff;stop-opacity:0.8" />
      <stop offset="100%" style="stop-color:#fff;stop-opacity:0" />
    </radialGradient>
  </defs>
  
  <!-- 背景圆 -->
  <circle cx="100" cy="100" r="90" fill="url(#gradient1)" />
  <circle cx="100" cy="100" r="90" fill="url(#gradient2)" />
  
  <!-- 动态星星 -->
  <g>
    <animateTransform
      attributeName="transform"
      attributeType="XML"
      type="rotate"
      from="0 100 100"
      to="360 100 100"
      dur="10s"
      repeatCount="indefinite"/>
    
    <!-- 星星1 -->
    <polygon points="100,30 110,60 140,60 118,78 128,108 100,90 72,108 82,78 60,60 90,60"
             fill="#FFD700" opacity="0.8">
      <animate attributeName="opacity" values="0.8;1;0.8" dur="2s" repeatCount="indefinite"/>
    </polygon>
    
    <!-- 星星2 -->
    <polygon points="50,50 55,65 70,65 58,75 63,90 50,82 37,90 42,75 30,65 45,65"
             fill="#FFF" opacity="0.6">
      <animate attributeName="opacity" values="0.6;1;0.6" dur="3s" repeatCount="indefinite"/>
    </polygon>
    
    <!-- 星星3 -->
    <polygon points="150,140 155,155 170,155 158,165 163,180 150,172 137,180 142,165 130,155 145,155"
             fill="#FFE4E1" opacity="0.7">
      <animate attributeName="opacity" values="0.7;1;0.7" dur="2.5s" repeatCount="indefinite"/>
    </polygon>
  </g>
  
  <!-- 中心文字 -->
  <text x="100" y="105" font-family="Arial, sans-serif" font-size="16" font-weight="bold" 
        text-anchor="middle" fill="#333">
    SVG
    <animate attributeName="font-size" values="16;20;16" dur="2s" repeatCount="indefinite"/>
  </text>
  
  <!-- 装饰圆点 -->
  <circle cx="70" cy="70" r="3" fill="#FF69B4">
    <animate attributeName="r" values="3;6;3" dur="1.5s" repeatCount="indefinite"/>
  </circle>
  <circle cx="130" cy="130" r="3" fill="#00CED1">
    <animate attributeName="r" values="3;6;3" dur="1.8s" repeatCount="indefinite"/>
  </circle>
  <circle cx="130" cy="70" r="3" fill="#32CD32">
    <animate attributeName="r" values="3;6;3" dur="2.2s" repeatCount="indefinite"/>
  </circle>
  <circle cx="70" cy="130" r="3" fill="#FF1493">
    <animate attributeName="r" values="3;6;3" dur="1.2s" repeatCount="indefinite"/>
  </circle>
</svg>
